<svg width="187" height="56" viewBox="0 0 187 56" fill="none" xmlns="http://www.w3.org/2000/svg">
<path d="M57.1412 40.6354C52.4914 40.6354 49.1051 38.6137 47.5889 34.9747L51.986 32.4476C53.0474 34.6715 54.8163 35.7328 57.2928 35.7328C60.477 35.7328 60.9318 34.3177 60.9318 33.4585C60.9318 31.6895 59.3145 31.083 55.5744 30.0722C52.0871 29.1119 48.4986 27.4946 48.4986 22.8448C48.4986 18.0938 52.5419 15.6173 56.5347 15.6173C60.4264 15.6173 63.4589 17.3863 65.2279 20.7725L60.9318 23.2491C59.921 21.379 58.5564 20.5198 56.5347 20.5198C54.5131 20.5198 53.6033 21.5812 53.6033 22.6426C53.6033 23.9567 54.3109 24.7653 58.2531 25.9783C61.8921 27.0902 66.0365 28.3032 66.0365 33.3574C66.0365 37.805 62.5492 40.6354 57.1412 40.6354Z" fill="white"/>
<path d="M68.2095 47.2055V23.1477H72.9604V25.2705L73.4658 24.7145C74.6788 23.3499 76.3467 22.6423 78.52 22.6423C83.1192 22.6423 86.7077 26.5846 86.7077 31.6387C86.7077 36.6929 83.1192 40.6351 78.52 40.6351C76.3467 40.6351 74.6283 39.9275 73.4658 38.5629L72.9604 38.007V47.155H68.2095V47.2055ZM78.0145 27.09C75.3358 27.09 73.5163 28.9095 73.5163 31.6387C73.5163 34.368 75.3358 36.238 78.0145 36.238C80.6932 36.238 82.5127 34.4185 82.5127 31.6387C82.5127 28.9095 80.6932 27.09 78.0145 27.09Z" fill="white"/>
<path d="M88.8813 40.5848V23.5523H93.6323V26.3826C94.2893 24.2093 96.968 23.2996 98.9391 23.1985V28.5559C98.7369 28.5559 98.5348 28.5053 98.2821 28.5053C96.1088 28.5053 93.5817 29.6678 93.5817 32.8519V40.5342H88.8813V40.5848Z" fill="white"/>
<path d="M110.159 40.6859C104.549 40.6859 100.657 36.9964 100.657 31.6895C100.657 26.4837 104.498 22.6931 109.805 22.6931C114.758 22.6931 118.498 26.5848 118.498 31.6895C118.498 32.3465 118.448 32.953 118.347 33.509H105.61L105.762 33.8628C106.419 35.6317 107.935 36.491 110.26 36.491C111.625 36.491 112.888 36.0361 113.697 35.2274L117.488 37.4007C115.769 39.574 113.343 40.6859 110.159 40.6859ZM109.755 26.787C107.632 26.787 106.166 27.8484 105.61 29.7689L105.509 30.1227H113.849L113.747 29.7689C113.242 27.8484 111.776 26.787 109.755 26.787Z" fill="white"/>
<path d="M130.173 40.787C124.563 40.787 120.671 37.0974 120.671 31.7906C120.671 26.5848 124.512 22.7942 129.819 22.7942C134.772 22.7942 138.512 26.6859 138.512 31.7906C138.512 32.4476 138.462 33.0541 138.36 33.6101H125.624L125.776 33.9639C126.433 35.7328 127.949 36.592 130.274 36.592C131.638 36.592 132.902 36.1372 133.711 35.3285L137.501 37.5018C135.783 39.6751 133.357 40.787 130.173 40.787ZM129.768 26.8881C127.646 26.8881 126.18 27.9494 125.624 29.87L125.523 30.2238H133.862L133.761 29.87C133.256 27.9494 131.79 26.8881 129.768 26.8881Z" fill="white"/>
<path d="M148.823 40.5847C146.397 40.5847 144.83 40.0793 143.87 39.0684C142.96 38.1082 142.555 36.6425 142.555 34.4186V27.9493H139.725V23.4511H142.555V20.0143L147.306 18.5991V23.4511H150.945V27.9493H147.306V34.4692C147.306 36.0865 148.671 36.2887 150.036 36.2887C150.339 36.2887 150.592 36.2887 150.945 36.2381V40.4836C150.187 40.5342 149.48 40.5847 148.823 40.5847C148.823 40.5847 148.873 40.5847 148.823 40.5847Z" fill="white"/>
<path d="M160.902 41.0901C156.303 41.0901 152.714 37.1478 152.714 32.0937C152.714 27.0395 156.303 23.0973 160.902 23.0973C163.075 23.0973 164.794 23.8049 165.956 25.1695L166.462 25.7255V23.6027H171.213V40.6352H166.462V38.5125L165.956 39.0684C164.743 40.433 163.075 41.0901 160.902 41.0901ZM161.357 27.5449C158.678 27.5449 156.859 29.3644 156.859 32.0937C156.859 34.8229 158.678 36.693 161.357 36.693C164.036 36.693 165.855 34.8735 165.855 32.0937C165.855 29.3644 164.086 27.5449 161.357 27.5449Z" fill="white"/>
<path d="M173.943 40.6859V23.6534H178.694V40.6859H173.943ZM176.319 21.5307C174.752 21.5307 173.438 20.2166 173.438 18.6498C173.438 17.083 174.752 15.7689 176.319 15.7689C177.886 15.7689 179.2 17.083 179.2 18.6498C179.2 20.2166 177.886 21.5307 176.319 21.5307Z" fill="white"/>
<path d="M186.174 15.4655H181.423V40.5846H186.174V15.4655Z" fill="white"/>
<path d="M9.02456 38.7145C8.97402 38.7145 8.87294 38.7145 8.82239 38.7145C8.16535 38.8156 7.76102 39.4221 7.8621 40.0792C8.67077 44.729 12.7141 46.9528 13.169 47.155C14.382 47.812 15.696 48.2669 17.0607 48.469C17.5155 48.5196 17.9704 48.5701 18.4253 48.5701C22.2159 48.5701 25.7538 46.3968 27.4217 43.1116C29.9488 38.108 28.2303 32.3968 23.2773 29.2633L20.8007 27.6459L16.4036 24.8661C12.5119 22.3896 11.0968 17.942 13.0173 14.0503C14.2809 11.5232 17.0101 9.85531 19.891 9.85531C20.2448 9.85531 20.5986 9.90585 20.9524 9.90585C22.0643 10.0575 23.0751 10.4113 24.0859 10.9672L24.1365 11.0178C24.187 11.0178 27.5733 12.7362 28.2303 16.4257C28.3314 16.9817 28.8368 17.386 29.3928 17.386C29.4433 17.386 29.5444 17.386 29.595 17.386C30.252 17.2849 30.6563 16.6784 30.5553 16.0214C29.7466 11.3716 25.7033 9.14773 25.2484 8.94556C24.0354 8.28852 22.7213 7.83365 21.3567 7.63148C20.9018 7.58094 20.4469 7.5304 19.9921 7.5304C16.2015 7.5304 12.6636 9.70368 10.9957 12.9889C8.41806 17.942 10.1365 23.6531 15.1401 26.7867L19.5372 29.5665L22.0643 31.1838C25.956 33.6604 27.3206 38.108 25.4 41.9997C24.1365 44.5268 21.4072 46.1947 18.5264 46.1947C18.1726 46.1947 17.8188 46.1441 17.465 46.1441C16.3531 45.9925 15.3423 45.6387 14.3314 45.0828L14.2809 45.0322C14.2303 45.0322 10.8441 43.3138 10.187 39.6243C10.0859 39.1189 9.63106 38.7145 9.02456 38.7145Z" fill="#09CCA9"/>
<path d="M14.7374 40.1297C14.3836 40.1297 14.0804 40.2814 13.8277 40.5341C13.4233 41.0395 13.4739 41.7471 13.9793 42.2019C14.7374 42.859 15.6977 43.3139 15.7988 43.3139C16.6074 43.6676 17.4667 43.8698 18.2753 43.8698C20.3475 43.8698 22.2176 42.7074 23.1273 40.8373C24.4414 38.1081 23.5822 35.1261 21.0046 33.4583L16.3547 30.4763L14.4342 29.2128C13.1201 28.4546 11.6038 26.9889 11.5533 26.9889C7.20672 22.8445 6.04426 16.729 8.62188 11.7759C10.6941 7.78315 14.889 5.20554 19.2356 5.15499H19.2861C21.2067 5.15499 23.936 5.45824 26.362 6.77232L26.4125 6.82286C26.463 6.87341 32.528 9.9059 33.5894 17.4366C33.6905 17.9925 34.1454 18.4474 34.7519 18.4474C34.8024 18.4474 34.8529 18.4474 34.9035 18.4474C35.2067 18.3969 35.51 18.2453 35.6616 17.9925C35.8638 17.7398 35.9143 17.4366 35.8638 17.1333C35.3584 13.5449 33.8927 10.4113 31.4161 7.8337C29.5461 5.86258 27.7771 4.90229 27.4233 4.70012C24.593 3.13333 21.4594 2.77954 19.3367 2.77954C19.2861 2.77954 19.2356 2.77954 19.1851 2.77954C13.9793 2.77954 9.02621 5.86258 6.54968 10.6135C5.18506 13.2416 4.6291 16.1731 5.03343 19.155C5.38722 22.0864 6.65076 24.9167 8.67242 27.2922V27.3427C8.67242 27.3933 8.72297 27.3933 8.72297 27.4438C9.93596 28.8084 11.4017 30.072 13.0695 31.1839L14.9901 32.4474L19.0334 35.025L19.6399 35.4294C21.2573 36.4908 21.7627 38.1586 20.954 39.8265C20.4486 40.8879 19.3872 41.5449 18.1742 41.5449C17.6688 41.5449 17.1634 41.4438 16.658 41.2417C16.658 41.2417 15.8999 40.8879 15.3944 40.433C15.2428 40.2308 14.9901 40.1297 14.7374 40.1297Z" fill="#09CCA9"/>
<path d="M11.3505 0C11.1989 0 10.9967 0.0505416 10.8451 0.101083C4.42631 3.13358 1.84869 8.18773 0.837858 11.8773C-0.274056 15.87 0.130276 19.1047 0.130276 19.2563C0.534608 23.2491 2.40465 26.5849 3.21331 27.8484C3.36493 28.1516 3.51656 28.3033 3.51656 28.3033C4.52739 29.769 5.33606 30.6282 5.3866 30.6787C9.531 34.9242 16.8595 38.917 17.1628 39.1192C17.3144 39.2202 17.5166 39.2708 17.7187 39.2708C18.1736 39.2708 18.5274 39.0181 18.7296 38.6643C18.8812 38.4116 18.9317 38.0578 18.8306 37.7545C18.7296 37.4513 18.5274 37.1986 18.2747 37.047C18.2241 36.9964 10.9967 33.0542 7.05447 29.0109C7.05447 29.0109 5.79093 27.6968 4.57793 25.5235C3.76927 24.0072 2.70789 21.5812 2.40465 18.9025C2.40465 18.8015 1.09056 7.22744 11.8054 2.17329C12.1086 2.02166 12.3108 1.8195 12.4119 1.51625C12.513 1.213 12.513 0.909748 12.3613 0.606499C12.2097 0.252708 11.8054 0 11.3505 0Z" fill="#09CCA9"/>
<path d="M3.61744 37.6029C3.56689 37.6029 3.51635 37.6029 3.46581 37.6029C2.80877 37.704 2.3539 38.3105 2.45498 38.917C2.9604 42.5055 4.4261 45.639 6.90264 48.2167C8.77267 50.1878 10.5416 51.1481 10.8954 51.3502C13.7257 52.917 16.9099 53.2708 19.0831 53.2708H19.1337H19.1842C24.39 53.2708 29.3431 50.1878 31.8196 45.4369C33.1842 42.8087 33.7402 39.8773 33.3359 36.8954C32.9821 33.964 31.7185 31.1336 29.6969 28.7582V28.7076C29.6969 28.6571 29.6463 28.6571 29.6463 28.6065C28.4333 27.2419 26.9676 25.9784 25.2998 24.8665L23.3792 23.6029L19.3359 21.0253L18.7294 20.621C17.112 19.5596 16.6066 17.8917 17.4153 16.2239C17.9207 15.1625 18.9821 14.5055 20.1951 14.5055C20.7005 14.5055 21.2059 14.6065 21.7113 14.8087C21.9135 14.9098 22.52 15.213 22.9748 15.6174C23.177 15.769 23.4297 15.8701 23.733 15.8701C24.0868 15.8701 24.39 15.7185 24.6427 15.4657C25.047 14.9603 24.9965 14.2527 24.4911 13.7979C23.733 13.1408 22.7727 12.686 22.6716 12.686C21.8629 12.3322 21.0037 12.13 20.1951 12.13C18.1229 12.13 16.2528 13.2925 15.3431 15.1625C14.029 17.8917 14.8882 20.8737 17.4658 22.5416L22.1156 25.5235L24.0362 26.7871C25.0976 27.4441 26.0073 28.2022 26.8665 29.0109C31.2131 33.1553 32.3756 39.2708 29.7474 44.2239C27.6752 48.2167 23.4803 50.7943 19.1337 50.8448H19.0831C17.1626 50.8448 14.4333 50.5416 12.0073 49.2275L11.9568 49.177C11.7041 49.0759 5.84126 46.0434 4.77989 38.5632C4.67881 38.0578 4.22393 37.6029 3.61744 37.6029Z" fill="#09CCA9"/>
<path d="M20.6507 16.7797C20.1958 16.7797 19.842 17.0324 19.6399 17.3862C19.3366 17.9421 19.5388 18.6497 20.0948 18.9529C20.0948 18.9529 21.9143 19.9638 24.2392 21.48C26.3619 22.8446 29.2428 24.9169 31.315 26.9891C31.315 26.9891 32.6291 28.3031 33.7915 30.4764C33.9937 30.8302 35.7121 33.9638 35.9648 37.0974C36.0153 37.6028 36.2175 40.3826 35.2572 43.7183C34.6507 45.74 33.741 47.5595 32.528 49.1262C31.0117 51.0974 28.9901 52.6642 26.5641 53.7761C25.9576 54.0288 25.7049 54.7364 26.0081 55.3429C26.2103 55.7472 26.6146 55.9999 27.0695 55.9999C27.2211 55.9999 27.4233 55.9494 27.5749 55.8988C33.9937 52.8663 36.5713 47.8122 37.5821 44.1226C38.694 40.1299 38.2897 36.8952 38.2897 36.7436C37.8348 32.7508 35.9648 29.415 35.2067 28.1515C35.0045 27.8483 34.8529 27.6461 34.8529 27.6461C33.8421 26.1804 33.0334 25.3212 32.9829 25.3212C28.8384 21.0757 21.5099 17.0829 21.2067 16.9313C21.055 16.8302 20.8529 16.7797 20.6507 16.7797Z" fill="#09CCA9"/>
</svg>
